<svg width="163" height="35" fill="none" xmlns="http://www.w3.org/2000/svg"><path fill-rule="evenodd" clip-rule="evenodd" d="M-.15.702v33.6H13.38a15.721 15.721 0 0011.72-4.824 16.458 16.458 0 004.712-11.976 16.459 16.459 0 00-4.712-11.976A15.723 15.723 0 0013.381.702H-.15zM7.581 26.91V8.091h5.8a8.646 8.646 0 016.5 2.568 9.407 9.407 0 012.49 6.84 9.406 9.406 0 01-2.49 6.84 8.642 8.642 0 01-6.5 2.568h-5.8v.003zm34.8-5.952h12.082v-7.3H42.378V8.091H55.67V.702H34.645v33.6H55.91V26.91H42.378v-5.952h.004zm36.343 13.344l11.02-33.6h-8.459l-7.49 24.72L66.303.702h-8.457l11.02 33.6h9.858zm14.4 0h7.733V.702h-7.733v33.6zm38.615-1.416a15.502 15.502 0 006.041-5.688l-6.67-3.84a7.481 7.481 0 01-3.165 3.024 9.87 9.87 0 01-4.664 1.1 9.594 9.594 0 01-7.177-2.736 9.911 9.911 0 01-2.682-7.248 9.91 9.91 0 012.682-7.248 9.593 9.593 0 017.177-2.736 9.897 9.897 0 014.639 1.08 7.589 7.589 0 013.19 3.048l6.67-3.84a15.874 15.874 0 00-6.09-5.688 17.42 17.42 0 00-8.409-2.088c-9.779-.272-17.797 7.691-17.591 17.472-.208 9.781 7.809 17.747 17.588 17.476a17.52 17.52 0 008.458-2.088h.003zm17.881-11.928h12.082v-7.3h-12.085V8.091h13.29V.702h-21.023v33.6h21.265V26.91h-13.532v-5.952h.003z" fill="#000"/></svg>